<?xml version="1.0" standalone="no"?>
<!DOCTYPE svg PUBLIC "-//W3C//DTD SVG 20010904//EN"
 "http://www.w3.org/TR/2001/REC-SVG-20010904/DTD/svg10.dtd">
<svg version="1.0" xmlns="http://www.w3.org/2000/svg"
 width="512.000000pt" height="512.000000pt" viewBox="0 0 512.000000 512.000000"
 preserveAspectRatio="xMidYMid meet">

<g transform="translate(0.000000,512.000000) scale(0.100000,-0.100000)"
fill="#000000" stroke="none">
<path d="M2240 5111 c-73 -23 -137 -78 -167 -146 -17 -37 -18 -99 -21 -967
l-2 -928 -928 -2 c-868 -3 -930 -4 -967 -21 -50 -23 -100 -70 -128 -122 -21
-39 -22 -51 -22 -365 0 -314 1 -326 22 -365 28 -52 78 -99 128 -122 37 -17 99
-18 967 -21 l928 -2 2 -928 c3 -868 4 -930 21 -967 23 -50 70 -100 122 -128
39 -21 51 -22 365 -22 314 0 326 1 365 22 52 28 99 78 122 128 17 37 18 99 21
967 l2 928 928 2 c868 3 930 4 967 21 50 23 100 70 128 122 21 39 22 51 22
365 0 314 -1 326 -22 365 -28 52 -78 99 -128 122 -37 17 -99 18 -967 21 l-928
2 -2 928 c-3 868 -4 930 -21 967 -23 50 -70 100 -122 128 -38 21 -53 22 -350
24 -170 1 -321 -2 -335 -6z"/>
</g>
</svg>
